<svg width="24" height="24" viewBox="0 0 24 24" fill="none" xmlns="http://www.w3.org/2000/svg">
<path fill-rule="evenodd" clip-rule="evenodd" d="M14.2602 6.11716C14.2602 8.9433 11.9692 11.2343 9.14303 11.2343C6.3169 11.2343 4.02587 8.9433 4.02587 6.11716C4.02587 3.29103 6.3169 1 9.14303 1C11.9692 1 14.2602 3.29103 14.2602 6.11716ZM12.2602 6.11716C12.2602 7.83873 10.8646 9.23433 9.14303 9.23433C7.42147 9.23433 6.02587 7.83873 6.02587 6.11716C6.02587 4.3956 7.42147 3 9.14303 3C10.8646 3 12.2602 4.3956 12.2602 6.11716Z" fill="white"/>
<path d="M2.99401 20.1101C3.16833 18.5362 3.81855 17.2761 4.81102 16.4074C5.80421 15.5381 7.20993 15 9.00009 15C10.0981 15 11.0514 15.2024 11.8537 15.5595C12.0688 15.6553 12.3271 15.5667 12.42 15.3504L12.8672 14.3092C12.944 14.1305 12.8813 13.9211 12.7144 13.8212C11.5646 13.1329 10.6719 13 9.00009 13C6.7991 13 4.90345 13.6685 3.49374 14.9025C2.08331 16.1371 1.22911 17.877 1.00617 19.8899C0.945368 20.4388 1.34108 20.9331 1.89 20.9939C2.43893 21.0547 2.93321 20.659 2.99401 20.1101Z" fill="white"/>
<path d="M21.4753 18.8836C21.6962 18.8836 21.8753 18.7045 21.8753 18.4836V17.3709C21.8753 17.15 21.6962 16.9709 21.4753 16.9709H18V13.4C18 13.1791 17.8209 13 17.6 13H16.4C16.1791 13 16 13.1791 16 13.4V16.9709H12.4C12.1791 16.9709 12 17.15 12 17.3709V18.4836C12 18.7045 12.1791 18.8836 12.4 18.8836H16V22.6C16 22.8209 16.1791 23 16.4 23H17.6C17.8209 23 18 22.8209 18 22.6V18.8836H21.4753Z" fill="white"/>
</svg>
