<svg width="24" height="24" viewBox="0 0 24 24" fill="none" xmlns="http://www.w3.org/2000/svg">
<path fill-rule="evenodd" clip-rule="evenodd" d="M9.14304 11.2343C11.9692 11.2343 14.2602 8.9433 14.2602 6.11716C14.2602 3.29103 11.9692 1 9.14304 1C6.3169 1 4.02587 3.29103 4.02587 6.11716C4.02587 8.9433 6.3169 11.2343 9.14304 11.2343ZM9.14304 9.23433C10.8646 9.23433 12.2602 7.83873 12.2602 6.11716C12.2602 4.3956 10.8646 3 9.14304 3C7.42147 3 6.02587 4.3956 6.02587 6.11716C6.02587 7.83873 7.42147 9.23433 9.14304 9.23433ZM4.81102 16.4074C3.81855 17.2761 3.16833 18.5362 2.99401 20.1101C2.93321 20.659 2.43893 21.0547 1.89 20.9939C1.34108 20.9331 0.945368 20.4388 1.00617 19.8899C1.22911 17.877 2.08331 16.1371 3.49374 14.9025C4.90345 13.6685 6.7991 13 9.00009 13C10.6719 13 11.5646 13.1329 12.7144 13.8212C12.8813 13.9211 12.944 14.1305 12.8672 14.3092L12.42 15.3504C12.3271 15.5667 12.0688 15.6553 11.8537 15.5595C11.0514 15.2024 10.0981 15 9.00009 15C7.20993 15 5.80421 15.5381 4.81102 16.4074ZM19.2325 13.3535C19.4277 13.1583 19.7443 13.1583 19.9396 13.3535L22.3659 15.7799C23.1219 16.5359 22.5865 17.8284 21.5174 17.8284H13.5002C13.2241 17.8284 13.0002 17.6046 13.0002 17.3284V16.3284C13.0002 16.0523 13.2241 15.8284 13.5002 15.8284H19.586L18.5254 14.7677C18.3301 14.5725 18.3301 14.2559 18.5254 14.0606L19.2325 13.3535ZM13.3541 20.8769L15.7804 23.3033C15.9757 23.4985 16.2923 23.4985 16.4876 23.3033L17.1947 22.5962C17.3899 22.4009 17.3899 22.0843 17.1947 21.8891L16.134 20.8284H22.2198C22.4959 20.8284 22.7198 20.6045 22.7198 20.3284V19.3284C22.7198 19.0522 22.4959 18.8284 22.2198 18.8284H14.2026C13.1335 18.8284 12.5981 20.1209 13.3541 20.8769Z" fill="white"/>
</svg>
