<svg width="24" height="24" viewBox="0 0 24 24" fill="none" xmlns="http://www.w3.org/2000/svg">
<path fill-rule="evenodd" clip-rule="evenodd" d="M8.14205 5.77226C7.59622 5.71448 7.0443 5.76949 6.52113 5.93374C5.99797 6.09799 5.51513 6.36783 5.1029 6.72597C4.69068 7.08408 4.35803 7.52269 4.12556 8.01395C3.8931 8.5052 3.76576 9.03864 3.75137 9.58072C3.73698 10.1228 3.83584 10.6621 4.04188 11.1647C4.24793 11.6674 4.55679 12.1226 4.94934 12.5017L4.9541 12.5063L11.5042 18.9439L11.8674 18.5808C11.9455 18.5027 12.0721 18.5027 12.1502 18.5808L12.9281 19.3586C13.0062 19.4367 13.0062 19.5633 12.9281 19.6414L12.0392 20.5303C11.7481 20.8214 11.2767 20.8235 10.9831 20.5349L3.9049 13.5783C3.36459 13.0559 2.93858 12.428 2.65397 11.7337C2.36892 11.0383 2.23197 10.2917 2.2519 9.54092C2.27183 8.79014 2.4482 8.05177 2.7697 7.37235C3.0912 6.69295 3.55077 6.0874 4.11915 5.59361C4.68751 5.09983 5.3524 4.72848 6.07183 4.50261C6.79124 4.27675 7.54985 4.20119 8.29996 4.28059C9.05007 4.36 9.77574 4.59269 10.4313 4.96425C10.8244 5.18706 11.1872 5.45695 11.5119 5.76715C11.8367 5.46034 12.199 5.19363 12.591 4.97364C13.2461 4.60602 13.9703 4.3767 14.7183 4.29977C15.4663 4.22285 16.2223 4.29995 16.9391 4.52634C17.6559 4.75273 18.3183 5.12362 18.8846 5.61611C19.451 6.10861 19.9092 6.71216 20.2303 7.38917C20.5513 8.06621 20.7282 8.80196 20.7497 9.55036L20.7619 9.97658C20.7662 10.1252 20.6125 10.2263 20.4777 10.1637L19.3624 9.64543C19.2937 9.6135 19.2494 9.54547 19.2448 9.46986C19.2147 8.97213 19.0894 8.48409 18.875 8.0319C18.6428 7.54236 18.3111 7.10521 17.9004 6.74802C17.4896 6.39083 17.0086 6.12132 16.4873 5.95669C15.9661 5.79206 15.4161 5.73593 14.8718 5.7919C14.3275 5.84788 13.8009 6.01471 13.3251 6.28174C12.8493 6.54876 12.4345 6.91012 12.1066 7.34292C11.9644 7.53062 11.7422 7.64063 11.5067 7.63997C11.2712 7.63931 11.0497 7.52807 10.9085 7.33958C10.582 6.90363 10.1678 6.53909 9.69163 6.26921C9.21548 5.99932 8.68787 5.83004 8.14205 5.77226Z" fill="white"/>
<path fill-rule="evenodd" clip-rule="evenodd" d="M14.0071 10.0677C13.934 9.98485 13.8076 9.97695 13.7248 10.05L12.9 10.7778C12.8171 10.8509 12.8092 10.9773 12.8823 11.0601L13.652 11.9324C13.1401 12.2127 12.7126 12.5425 12.3633 12.8728C11.9154 13.2965 11.5967 13.7199 11.3884 14.0398C11.284 14.2003 11.2064 14.3362 11.1535 14.4351C11.127 14.4846 11.1066 14.5251 11.092 14.5549C11.0848 14.5698 11.0789 14.5821 11.0745 14.5915L11.0689 14.6036L11.0669 14.608L11.0661 14.6097C11.0661 14.6097 11.0655 14.6112 11.75 14.9177L11.0655 14.6112C10.9782 14.8062 10.9782 15.0292 11.0655 15.2242L11.75 14.9177C11.0655 15.2242 11.0655 15.2242 11.0655 15.2242L11.0661 15.2257L11.0669 15.2275L11.0689 15.2318L11.0745 15.2439C11.0789 15.2533 11.0848 15.2656 11.092 15.2805C11.1066 15.3103 11.127 15.3508 11.1535 15.4003C11.2064 15.4993 11.284 15.6351 11.3884 15.7956C11.5967 16.1155 11.9154 16.5389 12.3633 16.9626C13.2668 17.8172 14.6937 18.6677 16.75 18.6677C17.6934 18.6677 18.5044 18.4887 19.1931 18.2123L20.1177 19.2602C20.1908 19.343 20.3171 19.3509 20.4 19.2778L21.2248 18.55C21.3076 18.477 21.3155 18.3506 21.2424 18.2677L14.0071 10.0677ZM18.1171 16.9928L14.678 13.0953C14.1478 13.3356 13.725 13.6496 13.3941 13.9626C13.0491 14.2889 12.8035 14.6155 12.6456 14.8581C12.6322 14.8786 12.6195 14.8985 12.6074 14.9177C12.6195 14.9369 12.6322 14.9568 12.6456 14.9773C12.8035 15.2199 13.0491 15.5465 13.3941 15.8728C14.0764 16.5183 15.1494 17.1677 16.75 17.1677C17.2572 17.1677 17.7115 17.1025 18.1171 16.9928Z" fill="white"/>
<path d="M16.2158 11.1873C16.056 11.1992 15.9845 11.3874 16.0905 11.5076L17.0703 12.6181C17.1053 12.6577 17.1547 12.6817 17.2074 12.686C18.558 12.7955 19.4908 13.3807 20.1059 13.9626C20.4509 14.2889 20.6965 14.6155 20.8544 14.8581C20.8678 14.8786 20.8805 14.8985 20.8926 14.9177C20.8805 14.9369 20.8678 14.9568 20.8544 14.9773C20.6965 15.2199 20.4509 15.5465 20.1059 15.8728V15.8728C20.0565 15.9196 20.0519 15.9972 20.0969 16.0482L20.8925 16.9499C20.9562 17.0221 21.0667 17.0288 21.1367 16.9626V16.9626C21.5846 16.5389 21.9033 16.1155 22.1116 15.7956C22.216 15.6351 22.2936 15.4993 22.3465 15.4003C22.373 15.3508 22.3934 15.3103 22.408 15.2805C22.4152 15.2656 22.4211 15.2533 22.4255 15.2439L22.4311 15.2318L22.4331 15.2275L22.4339 15.2257C22.4339 15.2257 22.4345 15.2242 21.75 14.9177L22.4345 15.2242C22.5218 15.0292 22.5218 14.8062 22.4345 14.6112L21.75 14.9177C22.4345 14.6112 22.4345 14.6112 22.4345 14.6112L22.4339 14.6097L22.4331 14.608L22.4311 14.6036L22.4255 14.5915C22.4211 14.5821 22.4152 14.5698 22.408 14.5549C22.3934 14.5251 22.373 14.4846 22.3465 14.4351C22.2936 14.3362 22.216 14.2003 22.1116 14.0398C21.9033 13.7199 21.5846 13.2965 21.1367 12.8728C20.2332 12.0183 18.8063 11.1677 16.75 11.1677C16.567 11.1677 16.3889 11.1744 16.2158 11.1873Z" fill="white"/>
</svg>
