<svg xmlns="http://www.w3.org/2000/svg" xmlns:xlink="http://www.w3.org/1999/xlink" version="1.1" width="256" height="256" viewBox="0 0 256 256" xml:space="preserve">

<defs>
</defs>
<g style="stroke: none; stroke-width: 0; stroke-dasharray: none; stroke-linecap: butt; stroke-linejoin: miter; stroke-miterlimit: 10; fill: none; fill-rule: nonzero; opacity: 1;" transform="translate(1.4065934065934016 1.4065934065934016) scale(2.81 2.81)" >
	<path d="M 79.285 74.165 H 10.715 c -2.697 0 -4.891 -2.194 -4.891 -4.891 V 20.725 c 0 -2.696 2.194 -4.89 4.891 -4.89 h 68.569 c 2.696 0 4.891 2.194 4.891 4.89 v 48.549 C 84.175 71.97 81.981 74.165 79.285 74.165 z M 10.715 17.835 c -1.594 0 -2.891 1.296 -2.891 2.89 v 48.549 c 0 1.594 1.297 2.891 2.891 2.891 h 68.569 c 1.594 0 2.891 -1.297 2.891 -2.891 V 20.725 c 0 -1.594 -1.297 -2.89 -2.891 -2.89 H 10.715 z" style="stroke: none; stroke-width: 1; stroke-dasharray: none; stroke-linecap: butt; stroke-linejoin: miter; stroke-miterlimit: 10; fill: rgb(0,0,0); fill-rule: nonzero; opacity: 1;" transform=" matrix(1 0 0 1 0 0) " stroke-linecap="round" />
	<path d="M 79.285 74.165 H 10.715 c -2.697 0 -4.891 -2.194 -4.891 -4.891 c 0 -0.235 0.083 -0.463 0.234 -0.643 l 19.3 -23.011 c 0.183 -0.218 0.449 -0.348 0.733 -0.357 c 0.277 -0.019 0.558 0.102 0.755 0.308 l 10.698 11.16 l 16.508 -20.226 c 0.186 -0.228 0.462 -0.362 0.755 -0.368 c 0.341 -0.009 0.575 0.119 0.77 0.338 l 28.349 32.137 c 0.161 0.183 0.25 0.418 0.25 0.661 C 84.175 71.97 81.981 74.165 79.285 74.165 z M 7.845 69.614 c 0.169 1.435 1.392 2.551 2.871 2.551 h 68.569 c 1.475 0 2.694 -1.109 2.869 -2.537 L 54.855 38.683 L 38.379 58.871 c -0.181 0.223 -0.449 0.355 -0.735 0.367 c -0.293 0.017 -0.564 -0.101 -0.762 -0.307 L 26.174 47.76 L 7.845 69.614 z" style="stroke: none; stroke-width: 1; stroke-dasharray: none; stroke-linecap: butt; stroke-linejoin: miter; stroke-miterlimit: 10; fill: rgb(0,0,0); fill-rule: nonzero; opacity: 1;" transform=" matrix(1 0 0 1 0 0) " stroke-linecap="round" />
	<path d="M 37.315 37.9 c -3.577 0 -6.487 -2.911 -6.487 -6.488 s 2.91 -6.487 6.487 -6.487 s 6.487 2.91 6.487 6.487 S 40.892 37.9 37.315 37.9 z M 37.315 26.926 c -2.474 0 -4.487 2.013 -4.487 4.487 c 0 2.475 2.013 4.488 4.487 4.488 c 2.474 0 4.487 -2.013 4.487 -4.488 C 41.802 28.939 39.789 26.926 37.315 26.926 z" style="stroke: none; stroke-width: 1; stroke-dasharray: none; stroke-linecap: butt; stroke-linejoin: miter; stroke-miterlimit: 10; fill: rgb(0,0,0); fill-rule: nonzero; opacity: 1;" transform=" matrix(1 0 0 1 0 0) " stroke-linecap="round" />
	<path d="M 6.824 52.047 c -0.427 0 -0.815 -0.273 -0.951 -0.691 L 0.241 34.02 c -0.833 -2.564 0.575 -5.329 3.14 -6.163 l 3.135 -1.019 c 0.305 -0.099 0.638 -0.046 0.897 0.142 c 0.259 0.188 0.412 0.489 0.412 0.809 v 23.257 c 0 0.492 -0.358 0.911 -0.844 0.987 C 6.929 52.043 6.876 52.047 6.824 52.047 z M 5.825 29.166 l -1.826 0.593 c -0.734 0.238 -1.332 0.749 -1.683 1.437 c -0.351 0.687 -0.412 1.471 -0.173 2.205 l 3.682 11.331 V 29.166 z" style="stroke: none; stroke-width: 1; stroke-dasharray: none; stroke-linecap: butt; stroke-linejoin: miter; stroke-miterlimit: 10; fill: rgb(0,0,0); fill-rule: nonzero; opacity: 1;" transform=" matrix(1 0 0 1 0 0) " stroke-linecap="round" />
	<path d="M 75.989 17.835 h -35.45 c -0.492 0 -0.911 -0.358 -0.988 -0.844 c -0.077 -0.486 0.211 -0.955 0.679 -1.107 l 28.364 -9.216 c 2.562 -0.834 5.328 0.574 6.162 3.14 l 2.184 6.719 c 0.099 0.304 0.046 0.638 -0.143 0.897 C 76.61 17.682 76.309 17.835 75.989 17.835 z M 46.853 15.835 h 27.759 l -1.758 -5.41 c -0.492 -1.515 -2.126 -2.351 -3.643 -1.855 L 46.853 15.835 z" style="stroke: none; stroke-width: 1; stroke-dasharray: none; stroke-linecap: butt; stroke-linejoin: miter; stroke-miterlimit: 10; fill: rgb(0,0,0); fill-rule: nonzero; opacity: 1;" transform=" matrix(1 0 0 1 0 0) " stroke-linecap="round" />
	<path d="M 83.175 63.211 c -0.209 0 -0.415 -0.065 -0.588 -0.19 c -0.259 -0.188 -0.412 -0.489 -0.412 -0.81 V 38.954 c 0 -0.492 0.357 -0.911 0.844 -0.988 c 0.487 -0.08 0.955 0.211 1.107 0.679 l 5.633 17.337 V 55.98 c 0.403 1.243 0.3 2.567 -0.294 3.731 c -0.593 1.164 -1.604 2.027 -2.847 2.431 l -3.134 1.02 C 83.383 63.194 83.279 63.211 83.175 63.211 z M 84.175 45.268 v 15.566 L 86 60.24 c 0.735 -0.238 1.333 -0.748 1.683 -1.437 c 0.351 -0.687 0.412 -1.471 0.174 -2.204 v -0.001 L 84.175 45.268 z" style="stroke: none; stroke-width: 1; stroke-dasharray: none; stroke-linecap: butt; stroke-linejoin: miter; stroke-miterlimit: 10; fill: rgb(0,0,0); fill-rule: nonzero; opacity: 1;" transform=" matrix(1 0 0 1 0 0) " stroke-linecap="round" />
	<path d="M 19.899 83.572 c -2.062 0 -3.985 -1.315 -4.655 -3.38 l -2.183 -6.719 c -0.099 -0.304 -0.046 -0.638 0.142 -0.896 c 0.188 -0.259 0.489 -0.412 0.809 -0.412 h 35.449 c 0.492 0 0.911 0.357 0.987 0.844 c 0.077 0.485 -0.211 0.955 -0.679 1.107 l -28.364 9.217 C 20.906 83.495 20.398 83.572 19.899 83.572 z M 15.388 74.165 l 1.758 5.41 c 0.492 1.515 2.126 2.346 3.642 1.855 l 22.36 -7.266 H 15.388 z" style="stroke: none; stroke-width: 1; stroke-dasharray: none; stroke-linecap: butt; stroke-linejoin: miter; stroke-miterlimit: 10; fill: rgb(0,0,0); fill-rule: nonzero; opacity: 1;" transform=" matrix(1 0 0 1 0 0) " stroke-linecap="round" />
</g>
</svg>