<svg width="23" height="24" viewBox="0 0 23 24" fill="none" xmlns="http://www.w3.org/2000/svg">
<path fill-rule="evenodd" clip-rule="evenodd" d="M6.37663 0.292893C6.76716 -0.0976311 7.40032 -0.0976311 7.79085 0.292893L11.0837 3.58579L14.3766 0.292893C14.7672 -0.0976311 15.4003 -0.0976311 15.7908 0.292893C16.1814 0.683418 16.1814 1.31658 15.7908 1.70711L13.498 4H18.9785C19.6696 4 20.2549 4.16639 20.7306 4.46768C21.2025 4.76655 21.5095 5.16181 21.7055 5.53425C21.8989 5.90177 21.9908 6.25806 22.0358 6.5147C22.0587 6.64527 22.0706 6.75642 22.0768 6.83909C22.0799 6.88059 22.0817 6.91541 22.0826 6.94247L22.0837 7C22.0837 7.55228 21.636 8 21.0837 8C20.5354 8 20.0901 7.55865 20.0838 7.01179L20.0835 7.00558L20.0824 6.98904C20.0804 6.96233 20.0759 6.91723 20.0659 6.8603C20.0451 6.74194 20.0054 6.59823 19.9357 6.46575C19.8685 6.33819 19.7807 6.23345 19.6605 6.15732C19.5441 6.08361 19.34 6 18.9785 6H3.189C2.82749 6 2.62333 6.08361 2.50695 6.15732C2.38674 6.23345 2.29895 6.33819 2.23182 6.46575C2.16209 6.59823 2.12236 6.74194 2.10159 6.8603C2.0916 6.91723 2.08705 6.96233 2.08504 6.98904C2.08415 7.00082 2.08379 7.00858 2.08367 7.01169C2.07741 7.55859 1.63212 8 1.08374 8C0.531455 8 0.08374 7.55228 0.08374 7L0.0848689 6.94247C0.0858184 6.91541 0.0875459 6.88059 0.0906665 6.83909C0.0968817 6.75642 0.108771 6.64527 0.131678 6.5147C0.176702 6.25806 0.268551 5.90177 0.46198 5.53425C0.658005 5.16181 0.96495 4.76655 1.43685 4.46768C1.91257 4.16639 2.49788 4 3.189 4H8.66953L6.37663 1.70711C5.98611 1.31658 5.98611 0.683418 6.37663 0.292893ZM1.58374 10C1.85988 10 2.08374 10.2239 2.08374 10.5V16H4.58374C4.85988 16 5.08374 16.2239 5.08374 16.5V17.5C5.08374 17.7761 4.85988 18 4.58374 18H0.58374C0.307598 18 0.08374 17.7761 0.08374 17.5V10.5C0.08374 10.2239 0.307598 10 0.58374 10H1.58374ZM6.58374 10C6.3076 10 6.08374 10.2239 6.08374 10.5V17.5C6.08374 17.7761 6.3076 18 6.58374 18H7.58374C7.85988 18 8.08374 17.7761 8.08374 17.5V10.5C8.08374 10.2239 7.85988 10 7.58374 10H6.58374ZM17.5837 10C17.3076 10 17.0837 10.2239 17.0837 10.5V17.5C17.0837 17.7761 17.3076 18 17.5837 18H21.0837C21.636 18 22.0837 17.5523 22.0837 17C22.0837 16.4477 21.636 16 21.0837 16H19.0837V15H21.0837C21.636 15 22.0837 14.5523 22.0837 14C22.0837 13.4477 21.636 13 21.0837 13H19.0837V12H21.0837C21.636 12 22.0837 11.5523 22.0837 11C22.0837 10.4477 21.636 10 21.0837 10H17.5837ZM11.1784 10.3787C11.1228 10.1562 10.9228 10 10.6934 10H9.72413C9.39884 10 9.16016 10.3057 9.23906 10.6213L10.8944 17.2425C11.0057 17.6877 11.4056 18 11.8645 18H13.303C13.7618 18 14.1618 17.6877 14.2731 17.2425L15.9284 10.6213C16.0073 10.3057 15.7686 10 15.4434 10H14.4741C14.2447 10 14.0447 10.1562 13.9891 10.3787L12.5837 16L11.1784 10.3787ZM1.35311 23.5323C1.82883 23.8336 2.41414 24 3.10526 24L18.8947 24C19.5859 24 20.1712 23.8336 20.6469 23.5323C21.1188 23.2335 21.4257 22.8382 21.6218 22.4657C21.8152 22.0982 21.907 21.7419 21.9521 21.4853C21.975 21.3547 21.9869 21.2436 21.9931 21.1609C21.9962 21.1194 21.9979 21.0846 21.9989 21.0575L22 21C22 20.4477 21.5523 20 21 20C20.4516 20 20.0063 20.4414 20.0001 20.9883C19.9999 20.9914 19.9996 20.9992 19.9987 21.011C19.9967 21.0377 19.9921 21.0828 19.9821 21.1397C19.9614 21.2581 19.9217 21.4018 19.8519 21.5343C19.7848 21.6618 19.697 21.7665 19.5768 21.8427C19.4604 21.9164 19.2563 22 18.8947 22L3.10526 22C2.74375 22 2.53959 21.9164 2.42321 21.8427C2.303 21.7665 2.21521 21.6618 2.14808 21.5343C2.07835 21.4018 2.03862 21.2581 2.01785 21.1397C2.00786 21.0828 2.00331 21.0377 2.0013 21.011C2.0004 20.9991 2.00005 20.9912 1.99993 20.9882C1.99361 20.4414 1.54835 20 1 20C0.447714 20 0 20.4477 0 21L0.00112941 21.0575C0.00207736 21.0846 0.00380541 21.1194 0.00692583 21.1609C0.0131419 21.2436 0.0250304 21.3547 0.0479376 21.4853C0.0929606 21.7419 0.184811 22.0982 0.378239 22.4657C0.574265 22.8382 0.881208 23.2334 1.35311 23.5323Z" fill="white"/>
</svg>
