<svg width="18" height="18" viewBox="0 0 18 18" fill="none" xmlns="http://www.w3.org/2000/svg">
<path d="M12.7575 2.31063C13.3886 2.15285 14 2.63021 14 3.28078V12H13.9919C14.0956 12.7299 13.1933 13.548 11.8968 13.8693C10.5338 14.207 9.25119 13.8677 9.03206 13.1115C8.81293 12.3553 9.74023 11.4684 11.1032 11.1307C11.8004 10.958 12.4765 10.9623 13 11.109V4.25L7 5.75V14H6.9919C7.09558 14.7299 6.1933 15.548 4.89677 15.8693C3.53377 16.207 2.25119 15.8677 2.03206 15.1115C1.81293 14.3553 2.74023 13.4684 4.10323 13.1307C4.80037 12.958 5.47647 12.9623 6 13.109V4.78078C6 4.32191 6.3123 3.92193 6.75746 3.81064L12.7575 2.31063Z" fill="white"/>
</svg>
