<svg width="24" height="24" viewBox="0 0 24 24" fill="none" xmlns="http://www.w3.org/2000/svg">
<path fill-rule="evenodd" clip-rule="evenodd" d="M4.94452 9C4.94452 12.5102 4.94452 12.94 2.21999 16.3715C1.69701 17.0302 2.16478 18 3.00993 18H20.9901C21.8352 18 22.303 17.0302 21.78 16.3715C19.0555 12.94 19.0555 12.5102 19.0555 9C19.0555 6.33333 17.6444 1 12 1C6.35562 1 4.94452 6.33333 4.94452 9ZM6.94452 9C6.94452 7.94012 7.23951 6.33901 8.04399 5.0721C8.78007 3.91291 9.9417 3 12 3C14.0583 3 15.2199 3.91291 15.956 5.0721C16.7605 6.33901 17.0555 7.94012 17.0555 9L17.0554 9.22082C17.0544 10.7711 17.0535 12.0738 17.5079 13.3747C17.8134 14.2494 18.3034 15.0714 18.9745 16H5.02547C5.69664 15.0714 6.18662 14.2494 6.49212 13.3747C6.94645 12.0738 6.94561 10.7711 6.94461 9.22082L6.94452 9Z" fill="white"/>
<path d="M15.0238 20C15.0238 21.6569 13.67 23 12 23C10.3301 23 8.97626 21.6569 8.97626 20H15.0238Z" fill="white"/>
</svg>
