<svg xmlns="http://www.w3.org/2000/svg" xmlns:xlink="http://www.w3.org/1999/xlink" version="1.1" width="256" height="256" viewBox="0 0 256 256" xml:space="preserve">

<defs>
</defs>
<g style="stroke: none; stroke-width: 0; stroke-dasharray: none; stroke-linecap: butt; stroke-linejoin: miter; stroke-miterlimit: 10; fill: none; fill-rule: nonzero; opacity: 1;" transform="translate(1.4065934065934016 1.4065934065934016) scale(2.81 2.81)" >
	<path d="M 17.533 90 c -0.453 0 -0.907 -0.103 -1.329 -0.311 c -1.023 -0.506 -1.671 -1.548 -1.671 -2.689 V 3 c 0 -1.141 0.647 -2.184 1.671 -2.689 c 1.021 -0.505 2.244 -0.387 3.151 0.306 l 54.934 42 c 0.742 0.568 1.178 1.449 1.178 2.383 s -0.436 1.815 -1.178 2.383 l -54.934 42 C 18.822 89.791 18.18 90 17.533 90 z M 20.533 9.07 v 71.86 L 67.527 45 L 20.533 9.07 z" style="stroke: none; stroke-width: 1; stroke-dasharray: none; stroke-linecap: butt; stroke-linejoin: miter; stroke-miterlimit: 10; fill: rgb(0,0,0); fill-rule: nonzero; opacity: 1;" transform=" matrix(1 0 0 1 0 0) " stroke-linecap="round" />
</g>
</svg>