<svg width="18" height="18" viewBox="0 0 18 18" fill="none" xmlns="http://www.w3.org/2000/svg">
<path fill-rule="evenodd" clip-rule="evenodd" d="M13 2H4V0H13C15.7614 0 18 2.23858 18 5V14H16V5C16 3.34315 14.6569 2 13 2ZM12 6H2L2 16H12V6ZM2 4C0.895431 4 0 4.89543 0 6V16C0 17.1046 0.89543 18 2 18H12C13.1046 18 14 17.1046 14 16V6C14 4.89543 13.1046 4 12 4H2ZM9.30822 12.0377C10.0414 11.5387 10.0363 10.4561 9.29837 9.96419L5.72697 7.58326C5.09564 7.16237 4.25 7.61494 4.25 8.3737L4.25 13.6842C4.25 14.447 5.10377 14.8987 5.73445 14.4696L9.30822 12.0377ZM5.75 9.40139L8.15749 11.0064L5.75 12.6446V9.40139Z" fill="white"/>
</svg>
