<svg width="24" height="24" viewBox="0 0 24 24" fill="none" xmlns="http://www.w3.org/2000/svg">
<path fill-rule="evenodd" clip-rule="evenodd" d="M8.5 4C8.77614 4 9 4.22386 9 4.5V5.5C9 5.77614 8.77614 6 8.5 6H6V8.5C6 8.77614 5.77614 9 5.5 9H4.5C4.22386 9 4 8.77614 4 8.5V5.5C4 4.67157 4.67157 4 5.5 4H8.5ZM15.5 20C15.2239 20 15 19.7761 15 19.5V18.5C15 18.2239 15.2239 18 15.5 18H18V15.5C18 15.2239 18.2239 15 18.5 15H19.5C19.7761 15 20 15.2239 20 15.5V18.5C20 19.3284 19.3284 20 18.5 20H15.5ZM20 8.5C20 8.77614 19.7761 9 19.5 9H18.5C18.2239 9 18 8.77614 18 8.5V6H15.5C15.2239 6 15 5.77614 15 5.5V4.5C15 4.22386 15.2239 4 15.5 4H18.5C19.3284 4 20 4.67157 20 5.5V8.5ZM4 15.5C4 15.2239 4.22386 15 4.5 15H5.5C5.77614 15 6 15.2239 6 15.5V18H8.5C8.77614 18 9 18.2239 9 18.5V19.5C9 19.7761 8.77614 20 8.5 20H5.5C4.67157 20 4 19.3284 4 18.5V15.5ZM4.5 11C4.22386 11 4 11.2239 4 11.5V12.5C4 12.7761 4.22386 13 4.5 13H19.5C19.7761 13 20 12.7761 20 12.5V11.5C20 11.2239 19.7761 11 19.5 11H4.5Z" fill="white"/>
</svg>
