
<svg width="24" height="24" viewBox="0 0 24 24" fill="none" xmlns="http://www.w3.org/2000/svg">
<path fill-rule="evenodd" clip-rule="evenodd" d="M3.30708 5.71299C3.42317 5.43273 3.69664 5.25 3.99999 5.25H20C20.2673 5.25 20.5145 5.39232 20.6487 5.62355C20.7829 5.85479 20.7838 6.13998 20.6512 6.3721L12.6512 20.3721C12.4992 20.638 12.2009 20.7848 11.8975 20.743C11.5941 20.7011 11.3467 20.479 11.2724 20.1819L9.32277 12.3834L3.46966 6.53033C3.25516 6.31583 3.191 5.99324 3.30708 5.71299ZM10.8558 12.3309L12.2749 18.0073L18.7076 6.75H5.81065L10.0956 11.0349L14.084 8.37596C14.4286 8.1462 14.8943 8.23933 15.124 8.58397C15.3538 8.92862 15.2607 9.39427 14.916 9.62404L10.8558 12.3309Z" fill="white"/>
</svg>
