<svg width="18" height="18" viewBox="0 0 18 18" fill="none" xmlns="http://www.w3.org/2000/svg">
<path fill-rule="evenodd" clip-rule="evenodd" d="M2 3.5H5.51386C5.46089 3.40803 5.41116 3.31535 5.36529 3.22361C5.17017 2.83337 5 2.37136 5 2H6C6 2.12864 6.07983 2.41663 6.25971 2.77639C6.39453 3.04603 6.55967 3.30435 6.72134 3.5H11V4.5H8.96321C8.89643 4.98816 8.7415 5.54581 8.52123 6.11732C8.23184 6.86818 7.81693 7.67596 7.29626 8.43066C8.03156 9.13902 8.68034 9.67214 9.5 10L9 11C8.06403 10.532 7.55014 10.0466 6.83506 9.37102C6.78614 9.32481 6.73628 9.2777 6.68528 9.22966C5.62175 10.4823 4.19189 11.5 2.5 11.5V10.5C3.81049 10.5 5.01807 9.67738 5.98808 8.50532C5.87863 8.37988 5.77251 8.25209 5.67006 8.12232C4.80916 7.03185 4.16779 5.75044 4.02834 4.5H2V3.5ZM5.03627 4.5H7.95149C7.89013 4.85637 7.77001 5.2858 7.58814 5.75768C7.34917 6.37772 7.01359 7.04501 6.59728 7.67843C6.54908 7.6204 6.50162 7.5618 6.45494 7.50268C5.68991 6.53364 5.17318 5.47079 5.03627 4.5ZM16.052 16H14.516L13.928 14.464H10.136L9.54799 16H8.01199L11.156 7.996H12.908L16.052 16ZM13.532 13.228L12.032 9.184L10.532 13.228H13.532Z" fill="white"/>
</svg>
